<?xml version="1.0" encoding="utf-8"?>
<!-- Generator: Adobe Illustrator 18.1.1, SVG Export Plug-In . SVG Version: 6.00 Build 0)  -->
<svg version="1.1" id="Layer_1" xmlns="http://www.w3.org/2000/svg" xmlns:xlink="http://www.w3.org/1999/xlink" x="0px" y="0px"
	 width="960px" height="262.3px" viewBox="0 149.5 960 262.3" enable-background="new 0 149.5 960 262.3" xml:space="preserve">
<g opacity="0.5">
	<path fill="#FFFFFF" d="M354.6,295.1c-1.9,2.9-6.1,6.7-12.2,11.9c-6.1,5.1-10.9,8.3-14.1,9.6c-2.9-2.2-8.7-13.5-16.7-34
		s-13.8-31.7-17-34c-5.5,0.6-12.2,5.1-20.2,13.1s-12.8,14.7-14.1,20.2c1.9,3.2,6.7,5.8,14.7,7.7c5.8,1.3,11.5,2.2,17.3,3.2l1.3,1.3
		c-1.3,2.2-4.2,6.1-9,11.5c-4.8,5.5-8,8.7-10.3,10.3c-2.9-0.3-8.3-2.2-16.4-5.8c-11.2-4.8-17-7.4-17-7.4c-1.3-0.3-2.9-1-5.1-2.2
		c-0.6-0.3-1.3-1-2.2-1.9c3.8-4.8,7.7-9.9,11.9-15.1c7.7-11.2,11.5-22.4,11.5-33.3c0-8.3-1-16.7-2.9-24.4
		c-2.9-11.5-6.7-17.3-12.2-17.3c-0.6,0-2.2,0.3-4.2,0.6c-1.9,0.6-3.5,0.6-4.8,0.6l-0.3-0.3c0-1.3,4.2-6.1,12.2-14.4
		s12.8-12.2,13.8-12.2c2.9,0,7.4,3.5,13.5,10.3c6.4,6.7,9.9,9.9,10.9,9.9c0.6,0,2.9-2.6,6.7-8.3c4.8-6.7,7.4-10.3,7.7-10.6l1.9-0.6
		c2.9,0.6,11.2,4.8,25.7,13.1c14.1,8.3,21.8,13.5,22.4,15.1c-1.6,2.9-10.3,9.3-26.6,19.2l-0.6,1.9c0,1,4.2,10.6,12.5,28.2
		c8,17.6,12.5,26.9,13.1,27.9s2.2,1.9,4.2,2.9C352.7,293.5,354,294.4,354.6,295.1L354.6,295.1z M314.9,222.3c0-1.3-1.3-2.6-4.2-4.2
		c-3.5-1.6-5.1-2.9-5.8-3.5c0,0-2.6-1.3-6.7-3.5c-3.5-1.9-5.8-2.9-6.1-2.9c-3.2,0-5.5,3.5-7.1,10.3c-0.6,4.8-1.3,9.3-1.9,13.8
		c-1,5.5-1.3,8-1.3,7.4c0,1.9,0.6,2.9,1.6,2.9c1.9,0,8-3.2,17.3-9.3C310.1,227.7,314.9,223.9,314.9,222.3z M426.5,273.9
		c0,3.5-5.1,11.2-15.4,23.1s-17.3,18-21.2,18.9c-0.6,0-6.1-2.2-16-6.7c-9.9-4.2-15.4-6.7-16-7.4c0-0.6-0.3-1-0.3-1.3
		c2.2-7.1,3.5-12.2,3.5-15.1v-11.9c0-5.5-0.3-10.9-0.6-16.4c-0.6-5.5-0.6-8.7-0.6-9.6c0-3.2,1.3-6.1,3.8-8.3
		c1.6-1.6,7.4-5.8,17-11.9l6.7-5.1c3.5-2.9,5.8-4.2,6.4-4.2c1,0,1.9,0.3,3.2,1c9.3,4.8,16.7,12.8,22.1,23.4
		C424.2,252.4,426.5,262.7,426.5,273.9z M405,284.8c0-13.5-3.5-24.4-10.9-32.1c-2.9-3.2-5.1-4.8-6.1-4.8h-0.6
		c-0.6,1.6-1.3,3.8-1.3,6.1c0,2.9-0.3,7.4-0.6,13.1c-0.3,5.8-0.6,10.3-0.6,13.1v5.8c0,1.3,1.9,3.2,6.1,5.8c3.8,2.2,6.7,3.5,8.3,3.5
		C403,294.7,405,291.5,405,284.8L405,284.8z M510.1,295.1c-2.9,3.8-5.5,7.7-8.3,11.2c-4.8,5.8-8.3,8.7-11.2,8.7
		c-0.3,0-1.9-1.9-5.1-5.8c-3.2-3.8-5.5-5.8-6.4-5.8c-1.9,0-5.1,1.9-10.3,5.8c-5.1,3.8-8.3,5.8-10.6,5.8s-6.7-1.9-13.5-6.1
		c-7.1-4.2-10.6-7.1-10.6-9c0-5.8,0.3-14.7,0.6-26.6c0.3-11.9,0.6-20.8,0.6-26.9l0.3-1c0.6-1.3,6.4-6.1,17-14.7
		c10.6-8.7,16.4-12.8,16.7-12.8c1.3,0,7.7,2.6,18.9,7.4s17.3,7.7,18.3,9c0,0.3-1,2.9-2.6,8.3c-1.9,5.5-2.9,9.9-2.9,12.8
		c0,15.1,0.3,24.4,1.3,27.6c0.3,1.6,1.6,3.5,4.2,6.1c2.2,2.6,3.5,4.2,3.5,5.5L510.1,295.1L510.1,295.1z M476.8,266.2l-0.3-17.6
		c-1-1.9-2.9-3.2-5.1-3.5c-1.9,0-4.8-1-8.3-2.2c-2.6,0-3.8,5.8-3.8,17.3v13.5c0,4.5,1.3,8.7,3.8,12.2c2.9,4.2,6.4,6.1,10.6,6.1
		C476.2,292.2,477.1,283.5,476.8,266.2L476.8,266.2z M568.5,227.1c0,0.6-0.6,4.5-1.9,11.5c-1.3,7.1-1.9,10.9-1.9,11.5
		c-0.6,1.3-1,1.9-1.6,1.9h-0.6c-9-7.7-15.7-11.2-20.8-11.2l-3.8,0.3c-1.6,1-2.6,3.5-2.6,7.7c0,5.8,1.3,11.9,3.8,18.3
		c2.6,6.4,6.1,11.9,9.9,16.4c4.2,4.8,8,7.7,11.2,8.7c1.3,0.3,2.9,1,4.5,1.3s2.6,1.3,3.2,1.9c-1.3,2.2-4.8,6.1-10.6,11.2
		s-9.9,7.7-11.5,7.7c-7.7,0-14.7-7.4-21.8-22.4c-6.1-13.1-9.3-24-9.3-32.7c0-5.1,4.8-13.1,14.1-24s16.7-17,22.1-18.3
		c1.3,0,4.5,1.6,9.6,4.2C565.6,224.2,568.5,226.1,568.5,227.1L568.5,227.1z M649.6,270.7c0,7.7-6.7,22.1-20.5,43.3
		c-14.1,21.5-24.4,32.4-30.8,32.4c-3.8,0-5.8-0.6-5.8-1.6l8.7-8.7c6.7-7.1,11.9-13.8,15.7-20.2c5.8-9.6,8.7-18.9,8.7-28.2
		c0-7.4-1.6-14.7-4.8-22.1s-7.4-13.5-12.8-18.3h-0.3c-0.6,1.6-1.3,6.1-1.6,13.8c-0.3,10.3,0,17.6,1.3,21.2c0.6,2.6,1.9,4.5,4.2,6.1
		c2.9,1.9,4.8,4.2,6.4,7.4c-1.3,2.6-4.2,6.1-9.3,10.6c-5.1,4.8-9,7.7-11.5,9c-2.2-0.6-6.1-2.2-11.5-5.1c-6.1-3.2-9-5.8-9-7.4
		c0-1.3,0.6-3.8,1.6-7.7c1-3.5,1.6-6.4,1.6-8.3c0.6-12.5,1-31.7,1-57.7c0-2.6-0.3-7.7-1-15.1c-0.6-6.1-0.6-11.2-0.3-14.7
		c0.6-1,5.1-3.8,13.5-8.7c8.3-4.8,13.1-7.4,14.1-7.4c0.6,0,1.3,1,1.3,2.9c0,2.9-0.3,7.4-1.3,13.5s-1.3,10.6-1.3,13.5
		c0,11.2,0.6,17,2.2,17h0.6c7.7-7.1,12.8-10.9,15.7-11.5c4.2,1.3,9.3,9,15.7,23.7C646.7,255.6,649.6,265.3,649.6,270.7L649.6,270.7z
		 M726.6,270.1c0,5.5-11.2,20.5-33.3,45.5l-1.3,0.3c-2.2,0-8.3-2.6-19.2-7.7c-10.6-5.1-16.7-8.3-17.6-10.3c0-1.3,1-3.2,2.2-5.5
		c1.3-2.6,2.2-4.2,2.6-5.8c1-5.5,1.3-11.9,1.6-19.2v-20.2c-0.3-10.3-0.3-16.7-0.3-19.2c0-10.6-1.6-19.6-4.5-27.3l0.6-1
		c1.9-1.6,7.7-4.5,17.3-8.3s16-6.1,18.9-6.7l1.3,1v0.6c-6.1,5.5-9.3,11.5-9.3,18.9v26.6c0,0.3,0.3,0.3,0.6,0.3
		c0.6,0,5.5-4.5,15.1-13.1h2.9c6.7,6.7,12.2,14.4,16.4,23.4C724.3,252.1,726.6,261.4,726.6,270.1L726.6,270.1z M706.7,283.2
		c0-6.4-1.6-12.8-4.5-19.2c-2.9-6.4-7.1-11.9-11.9-16.4c-1.3-1-2.2-1.6-2.9-1.6c-1.9,0-2.9,1.3-2.9,3.5c0,2.9-0.3,7.4-0.6,13.5
		s-0.6,10.6-0.6,13.5v4.8c0,6.7,4.8,9.9,14.7,9.9h3.2c1.3,0,2.2-1,3.2-3.2C706.1,286.4,706.7,284.5,706.7,283.2L706.7,283.2z
		 M791.3,233.5c0,1.9-2.2,7.1-7.1,15.1c-4.5,8-8,12.2-9.9,13.1l-1.3-1c-1.6-6.7-4.2-11.9-8-15.1h-0.3l-1.3,1.3
		c-0.6,1.6-1,11.2-1,28.9c0,1.3,0,3.2,0.3,5.8c0.3,2.9,0.3,4.8,0.3,5.8c1.9,1.9,5.8,3.2,12.2,4.2c5.8,1,9.3,2.2,10.3,3.2
		c-1,2.2-3.8,6.1-9,10.9c-7.4,7.1-11.5,10.6-12.2,10.6l-2.6,0.3c0,0-4.8-1.6-12.5-5.1c-7.4-3.5-12.2-6.1-13.8-7.4l-1-1.9
		c2.6-14.1,3.8-26.6,3.8-37.8c0-1.3,0-4.2-0.3-8.3v-8.7c-0.6-1-1.9-2.2-3.8-3.8c-2.2-1.6-3.2-3.2-3.2-4.5
		c5.8-11.2,10.6-18.3,14.7-20.8c1.9,0.3,4.8,2.2,8.7,5.8c3.8,3.5,6.4,5.1,8,5.1c1.3,0,3.2-1.6,5.5-4.8c2.9-3.5,4.5-5.8,5.5-6.4h1
		C781.7,222.3,787.5,227.7,791.3,233.5z M872.5,295.1c-2.9,3.8-5.5,7.7-8.3,11.2c-4.8,5.8-8.3,8.7-11.2,8.7c-0.3,0-1.9-1.9-5.1-5.8
		c-3.2-3.8-5.5-5.8-6.4-5.8c-1.9,0-5.1,1.9-10.3,5.8c-5.1,3.8-8.3,5.8-10.6,5.8c-2.2,0-6.7-1.9-13.5-6.1c-7.1-4.2-10.6-7.1-10.6-9
		c0-5.8,0-14.7,0.6-26.6c0.3-11.9,0.6-20.8,0.6-26.9l0.3-1c0.6-1.3,6.4-6.1,17-14.7c10.6-8.7,16.4-12.8,16.7-12.8
		c1.3,0,7.7,2.6,18.9,7.4c11.2,4.8,17.3,7.7,18.3,9c0,0.3-1,2.9-2.6,8.3c-1.9,5.5-2.9,9.9-2.9,12.8c0,15.1,0.3,24.4,1.3,27.6
		c0.3,1.6,1.6,3.5,4.2,6.1c2.6,2.6,3.5,4.2,3.5,5.5L872.5,295.1L872.5,295.1z M839.1,266.2l-0.3-17.6c-1-1.9-2.9-3.2-5.1-3.5
		c-1.9,0-4.8-1-8.3-2.2c-2.6,0-3.8,5.8-3.8,17.3v13.5c0,4.5,1.3,8.7,3.8,12.2c2.9,4.2,6.4,6.1,10.6,6.1
		C838.5,292.2,839.8,283.5,839.1,266.2L839.1,266.2z M960,295.1c0,1.6-2.2,5.1-6.4,11.2c-4.2,5.8-7.1,9.3-8.7,10.3
		c-2.6-0.3-5.8-1.9-9.3-4.2c-4.8-3.5-8-5.5-9-5.8l-1.3-1.9c0.3-1.9,0.3-2.9-0.6-3.2c-1.6,0.6-5.5,3.2-11.9,7.7
		c-6.1,4.8-9.6,7.1-10.3,7.1H902c-1.3-1-5.5-3.2-12.2-6.7c-6.1-2.9-9.6-4.8-9.9-5.5c0.3-1.9,1.6-6.1,4.2-12.8
		c1.3-4.2,2.2-8.7,2.2-14.1v-25.3c0-3.8-1-6.7-2.6-9.3c-1.9-2.9-3.2-5.1-3.2-6.4c0-0.6,3.5-3.8,9.6-9.6c6.4-5.8,9.6-8.7,10.3-8.7
		c2.9,1,7.1,4.2,12.2,9.3v5.1c0,4.5-0.3,11.5-0.6,20.5c-0.6,9-0.6,16-0.6,20.5c0,12.5,2.6,18.6,7.7,18.6c7.1,0,10.6-6.1,10.6-18
		v-26.6c0-1.3-1-3.2-3.2-5.1c-2.6-2.2-3.8-3.5-4.2-4.2c0.6-2.2,3.2-5.8,7.4-10.3s7.1-7.1,9.3-8c7.7,3.2,13.5,6.4,17.3,9.9
		c0.6,23.1-0.3,41-3.2,53.9c-0.3,1.9,0.6,4.2,2.9,6.4C956.5,291.5,958.1,293.5,960,295.1L960,295.1z M821.2,191.2
		c4.2,3.5,6.4,6.1,6.4,7.4c0,1.3-2.2,3.8-6.4,7.4c-4.2,3.5-7.1,5.5-8,5.5c-1.3,0-3.8-1.9-8-5.5c-4.2-3.5-6.4-6.1-6.4-7.4
		c0-1.3,2.2-3.8,6.4-7.4c4.2-3.5,7.1-5.5,8-5.5S817,187.3,821.2,191.2z M859.6,191.2c4.2,3.5,6.4,6.1,6.4,7.4c0,1.3-2.2,3.8-6.4,7.4
		s-7.1,5.5-8,5.5c-1.3,0-3.8-1.9-8-5.5c-4.2-3.5-6.4-6.1-6.4-7.4c0-1.3,2.2-3.8,6.4-7.4c4.2-3.5,7.1-5.5,8-5.5
		C852.9,185.7,855.5,187.3,859.6,191.2z"/>
</g>
<path d="M351.4,291.9c-1.9,2.9-6.1,6.7-12.2,11.9c-6.1,5.1-10.9,8.3-14.1,9.6c-2.9-2.2-8.7-13.5-16.7-34s-13.8-31.7-17-34
	c-5.5,0.6-12.2,5.1-20.2,13.1s-12.8,14.7-14.1,20.2c1.9,3.2,6.7,5.8,14.7,7.7c5.8,1.3,11.5,2.2,17.3,3.2l1.3,1.3
	c-1.3,2.2-4.2,6.1-9,11.5c-4.8,5.5-8,8.7-10.3,10.3c-2.9-0.3-8.3-2.2-16.4-5.8c-11.2-4.8-17-7.4-17-7.4c-1.3-0.3-2.9-1-5.1-2.2
	c-0.6-0.3-1.3-1-2.2-1.9c3.8-4.8,7.7-9.9,11.9-15.1c7.7-11.2,11.5-22.4,11.5-33.3c0-8.3-1-16.7-2.9-24.4
	c-2.9-11.5-6.7-17.3-12.2-17.3c-0.6,0-2.2,0.3-4.2,0.6c-1.9,0.6-3.5,0.6-4.8,0.6l-0.3-0.3c0-1.3,4.2-6.1,12.2-14.4
	c8-8.3,12.8-12.2,13.8-12.2c2.9,0,7.4,3.5,13.5,10.3c6.4,6.7,9.9,9.9,10.9,9.9c0.6,0,2.9-2.6,6.7-8.3c4.8-6.7,7.4-10.3,7.7-10.6
	l1.9-0.6c2.9,0.6,11.2,4.8,25.7,13.1c14.1,8.3,21.8,13.5,22.4,15.1c-1.6,2.9-10.3,9.3-26.6,19.2l-0.3,2.2c0,1,4.2,10.6,12.5,28.2
	c8,17.6,12.5,26.9,13.1,27.9s2.2,1.9,4.2,2.9C349.5,290.3,350.8,291.2,351.4,291.9L351.4,291.9z M311.7,219.1c0-1.3-1.3-2.6-4.2-4.2
	c-3.5-1.6-5.1-2.9-5.8-3.5c0,0-2.6-1.3-6.7-3.5c-3.5-1.9-5.8-2.9-6.1-2.9c-3.2,0-5.5,3.5-7.1,10.3c-0.6,4.8-1.3,9.3-1.9,13.8
	c-1,5.5-1.3,8-1.3,7.4c0,1.9,0.6,2.9,1.6,2.9c1.9,0,8-3.2,17.3-9.3C306.9,224.5,311.7,220.7,311.7,219.1z M423.2,270.7
	c0,3.5-5.1,11.2-15.4,23.1s-17.3,18-21.2,18.9c-0.6,0-6.1-2.2-16-6.7c-9.9-4.2-15.4-6.7-16-7.4c0-0.6-0.3-1-0.3-1.3
	c2.2-7.1,3.5-12.2,3.5-15.1v-11.9c0-5.5-0.3-10.9-0.6-16.4c-0.6-5.5-0.6-8.7-0.6-9.6c0-3.2,1.3-6.1,3.8-8.3c1.6-1.6,7.4-5.8,17-11.9
	l6.7-5.1c3.5-2.9,5.8-4.2,6.4-4.2c1,0,1.9,0.3,3.2,1c9.3,4.8,16.7,12.8,22.1,23.4C421,249.2,423.2,259.5,423.2,270.7z M401.8,281.6
	c0-13.5-3.5-24.4-10.9-32.1c-2.9-3.2-5.1-4.8-6.1-4.8h-0.6c-0.6,1.6-1.3,3.8-1.3,6.1c0,2.9-0.3,7.4-0.6,13.1
	c-0.3,5.8-0.6,10.3-0.6,13.1v5.8c0,1.3,1.9,3.2,6.1,5.8c3.8,2.2,6.7,3.5,8.3,3.5C399.8,291.5,401.8,288.3,401.8,281.6L401.8,281.6z
	 M506.9,291.9c-2.9,3.8-5.5,7.7-8.3,11.2c-4.8,5.8-8.3,8.7-11.2,8.7c-0.3,0-1.9-1.9-5.1-5.8c-3.2-3.8-5.5-5.8-6.4-5.8
	c-1.9,0-5.1,1.9-10.3,5.8c-5.1,3.8-8.3,5.8-10.6,5.8s-6.7-1.9-13.5-6.1c-7.1-4.2-10.6-7.1-10.6-9c0-5.8,0.3-14.7,0.6-26.6
	c0.3-11.9,0.6-20.8,0.6-26.9l0.3-1c0.6-1.3,6.4-6.1,17-14.7s16.4-12.8,16.7-12.8c1.3,0,7.7,2.6,18.9,7.4c11.2,4.8,17.3,7.7,18.3,9
	c0,0.3-1,2.9-2.6,8.3c-1.9,5.5-2.9,9.9-2.9,12.8c0,15.1,0.3,24.4,1.3,27.6c0.3,1.6,1.6,3.5,4.2,6.1c2.2,2.6,3.5,4.2,3.5,5.5
	L506.9,291.9L506.9,291.9z M473.6,263l-0.3-17.6c-1-1.9-2.9-3.2-5.1-3.5c-1.9,0-4.8-1-8.3-2.2c-2.6,0-3.8,5.8-3.8,17.3v13.5
	c0,4.5,1.3,8.7,3.8,12.2c2.9,4.2,6.4,6.1,10.6,6.1C472.9,289,473.9,280.3,473.6,263L473.6,263z M565.3,223.9c0,0.6-0.6,4.5-1.9,11.5
	c-1.3,7.1-1.9,10.9-1.9,11.5c-0.6,1.3-1,1.9-1.6,1.9h-0.6c-9-7.7-15.7-11.2-20.8-11.2l-3.8,0.3c-1.6,1-2.6,3.5-2.6,7.7
	c0,5.8,1.3,11.9,3.8,18.3c2.6,6.4,6.1,11.9,9.9,16.4c4.2,4.8,8,7.7,11.2,8.7c1.3,0.3,2.9,1,4.5,1.3s2.6,1.3,3.2,1.9
	c-1.3,2.2-4.8,6.1-10.6,11.2s-9.9,7.7-11.5,7.7c-7.7,0-14.7-7.4-21.8-22.4c-6.1-13.1-9.3-24-9.3-32.7c0-5.1,4.8-13.1,14.1-24
	s16.7-17,22.1-18.3c1.3,0,4.5,1.6,9.6,4.2C562.4,221,565.3,222.9,565.3,223.9L565.3,223.9z M646.4,267.5c0,7.7-6.7,22.1-20.5,43.3
	c-14.1,21.5-24.4,32.4-30.8,32.4c-3.8,0-5.8-0.6-5.8-1.6l8.7-8.7c6.7-7.1,11.9-13.8,15.7-20.2c5.8-9.6,8.7-18.9,8.7-28.2
	c0-7.4-1.6-14.7-4.8-22.1s-7.4-13.5-12.8-18.3h-0.3c-0.6,1.6-1.3,6.1-1.6,13.8c-0.3,10.3,0,17.6,1.3,21.2c0.6,2.6,1.9,4.5,4.2,6.1
	c2.9,1.9,4.8,4.2,6.4,7.4c-1.3,2.6-4.2,6.1-9.3,10.6c-5.1,4.8-9,7.7-11.5,9c-2.2-0.6-6.1-2.2-11.5-5.1c-6.1-3.2-9-5.8-9-7.4
	c0-1.3,0.6-3.8,1.6-7.7c1-3.5,1.6-6.4,1.6-8.3c0.6-12.5,1-31.7,1-57.7c0-2.6-0.3-7.7-1-15.1c-0.6-6.1-0.6-11.2-0.3-14.7
	c0.6-1,5.1-3.8,13.5-8.7c8.3-4.8,13.1-7.4,14.1-7.4c0.6,0,1.3,1,1.3,2.9c0,2.9-0.3,7.4-1.3,13.5s-1.3,10.6-1.3,13.5
	c0,11.2,0.6,17,2.2,17h0.6c7.7-7.1,12.8-10.9,15.7-11.5c4.2,1.3,9.3,9,15.7,23.7C643.5,252.4,646.4,262,646.4,267.5L646.4,267.5z
	 M723.4,266.9c0,5.5-11.2,20.5-33.3,45.5l-1.3,0.3c-2.2,0-8.3-2.6-19.2-7.7c-10.6-5.1-16.7-8.3-17.6-10.3c0-1.3,1-3.2,2.2-5.5
	c1.3-2.6,2.2-4.2,2.6-5.8c1-5.5,1.3-11.9,1.6-19.2V244c-0.3-10.3-0.3-16.7-0.3-19.2c0-10.6-1.6-19.6-4.5-27.3l0.6-1
	c1.9-1.6,7.7-4.5,17.3-8.3s16-6.1,18.9-6.7l1.3,1v0.6c-6.1,5.5-9.3,11.5-9.3,18.9v26.6c0,0.3,0.3,0.3,0.6,0.3
	c0.6,0,5.5-4.5,15.1-13.1h2.9c6.7,6.7,12.2,14.4,16.4,23.4C721.1,248.9,723.4,258.2,723.4,266.9L723.4,266.9z M703.5,280
	c0-6.4-1.6-12.8-4.5-19.2c-2.9-6.4-7.1-11.9-11.9-16.4c-1.3-1-2.2-1.6-2.9-1.6c-1.9,0-2.9,1.3-2.9,3.5c0,2.9-0.3,7.4-0.6,13.5
	s-0.6,10.6-0.6,13.5v4.8c0,6.7,4.8,9.9,14.7,9.9h3.2c1.3,0,2.2-1,3.2-3.2C702.8,283.2,703.5,281.3,703.5,280L703.5,280z
	 M788.1,230.3c0,1.9-2.2,7.1-7.1,15.1c-4.5,8-8,12.2-9.9,13.1l-1.3-1c-1.6-6.7-4.2-11.9-8-15.1h-0.3l-1.3,1.3
	c-0.6,1.6-1,11.2-1,28.9c0,1.3,0,3.2,0.3,5.8c0.3,2.9,0.3,4.8,0.3,5.8c1.9,1.9,5.8,3.2,12.2,4.2c5.8,1,9.3,2.2,10.3,3.2
	c-1,2.2-3.8,6.1-9,10.9c-7.4,7.1-11.5,10.6-12.2,10.6l-2.6,0.3c0,0-4.8-1.6-12.5-5.1c-7.4-3.5-12.2-6.1-13.8-7.4l-1-1.9
	c2.6-14.1,3.8-26.6,3.8-37.8c0-1.3,0-4.2-0.3-8.3v-8.7c-0.6-1-1.9-2.2-3.8-3.8c-2.2-1.6-3.2-3.2-3.2-4.5
	c5.8-11.2,10.6-18.3,14.7-20.8c1.9,0.3,4.8,2.2,8.7,5.8c3.8,3.5,6.4,5.1,8,5.1c1.3,0,3.2-1.6,5.5-4.8c2.9-3.5,4.5-5.8,5.5-6.4h1
	C778.5,219.1,784.3,224.5,788.1,230.3z M869.3,291.9c-2.9,3.8-5.5,7.7-8.3,11.2c-4.8,5.8-8.3,8.7-11.2,8.7c-0.3,0-1.9-1.9-5.1-5.8
	s-5.5-5.8-6.4-5.8c-1.9,0-5.1,1.9-10.3,5.8c-5.1,3.8-8.3,5.8-10.6,5.8c-2.2,0-6.7-1.9-13.5-6.1c-7.1-4.2-10.6-7.1-10.6-9
	c0-5.8,0-14.7,0.6-26.6c0.3-11.9,0.6-20.8,0.6-26.9l0.3-1c0.6-1.3,6.4-6.1,17-14.7c10.6-8.7,16.4-12.8,16.7-12.8
	c1.3,0,7.7,2.6,18.9,7.4c11.2,4.8,17.3,7.7,18.3,9c0,0.3-1,2.9-2.6,8.3c-1.9,5.5-2.9,9.9-2.9,12.8c0,15.1,0.3,24.4,1.3,27.6
	c0.3,1.6,1.6,3.5,4.2,6.1c2.2,2.6,3.5,4.2,3.5,5.5L869.3,291.9L869.3,291.9z M835.9,263l-0.3-17.6c-1-1.9-2.9-3.2-5.1-3.5
	c-1.9,0-4.8-1-8.3-2.2c-2.6,0-3.8,5.8-3.8,17.3v13.5c0,4.5,1.3,8.7,3.8,12.2c2.9,4.2,6.4,6.1,10.6,6.1
	C835.3,289,836.6,280.3,835.9,263L835.9,263z M956.8,291.9c0,1.6-2.2,5.1-6.4,11.2c-4.2,5.8-7.1,9.3-8.7,10.3
	c-2.6-0.3-5.8-1.9-9.3-4.2c-4.8-3.5-8-5.5-9-5.8l-1.3-1.9c0.3-1.9,0.3-2.9-0.6-3.2c-1.6,0.6-5.5,3.2-11.9,7.7
	c-6.1,4.8-9.6,7.1-10.3,7.1h-0.6c-1.3-1-5.5-3.2-12.2-6.7c-6.1-2.9-9.6-4.8-9.9-5.5c0.3-1.9,1.6-6.1,4.2-12.8
	c1.3-4.2,2.2-8.7,2.2-14.1v-25.3c0-3.8-1-6.7-2.6-9.3c-1.9-2.9-3.2-5.1-3.2-6.4c0-0.6,3.5-3.8,9.6-9.6c6.4-5.8,9.6-8.7,10.3-8.7
	c2.9,1,7.1,4.2,12.2,9.3v5.1c0,4.5-0.3,11.5-0.6,20.5c-0.6,9-0.6,16-0.6,20.5c0,12.5,2.6,18.6,7.7,18.6c7.1,0,10.6-6.1,10.6-18
	v-26.6c0-1.3-1-3.2-3.2-5.1c-2.6-2.2-3.8-3.5-4.2-4.2c0.6-2.2,3.2-5.8,7.4-10.3s7.1-7.1,9.3-8c7.7,3.2,13.5,6.4,17.3,9.9
	c0.6,23.1-0.3,41-3.2,53.9c-0.3,1.9,0.6,4.2,2.9,6.4C953.3,288.3,954.9,290.3,956.8,291.9L956.8,291.9z M818,188
	c4.2,3.5,6.4,6.1,6.4,7.4s-2.2,3.8-6.4,7.4c-4.2,3.5-7.1,5.5-8,5.5c-1.3,0-3.8-1.9-8-5.5c-4.2-3.5-6.4-6.1-6.4-7.4s2.2-3.8,6.4-7.4
	c4.2-3.5,7.1-5.5,8-5.5S813.8,184.1,818,188z M856.4,188c4.2,3.5,6.4,6.1,6.4,7.4s-2.2,3.8-6.4,7.4c-4.2,3.5-7.1,5.5-8,5.5
	c-1.3,0-3.8-1.9-8-5.5s-6.4-6.1-6.4-7.4s2.2-3.8,6.4-7.4s7.1-5.5,8-5.5C849.7,182.5,852.3,184.1,856.4,188z M92.3,402.8
	c-1.9-1.6-53.5-43-76-93.9C-2.9,265.3,8,189.9,8.7,187l0.6-3.5l3.5-0.6c42.6-7.4,80.2-26.6,80.5-26.6l2.2-1.3l2.2,1.3
	c0.3,0.3,37.5,19.2,80.8,26.6l3.5,0.6l0.6,3.5c0.3,3.2,11.5,78.6-7.7,121.8c-22.4,51-74.1,92.3-76.3,94.3l-2.9,2.6L92.3,402.8z
	 M95.6,160.4c0,0,37.8,19.6,82.1,26.9c0,0,11.5,76.6-7.4,119.3C148.1,357.3,95.6,399,95.6,399S43,357.3,20.8,306.6
	C1.9,264,13.1,187.3,13.1,187.3C57.7,180,95.6,160.4,95.6,160.4 M95.6,149.5l-4.5,2.2c-0.6,0.3-37.2,19.2-79.5,26L4.8,179l-1,7.1
	c-0.6,3.2-11.5,79.8,8,124.7C34.9,363,87.2,405.1,89.5,407l6.1,4.8l6.1-4.8c2.2-1.9,54.8-43.9,77.6-96.2
	c19.9-44.9,8.7-121.5,8-124.7l-1-7.1l-7.1-1.3c-42.3-7.1-78.9-25.7-79.2-26L95.6,149.5L95.6,149.5z"/>
<path fill="#AF0600" stroke="#FFFFFF" stroke-width="1.541" stroke-miterlimit="10" d="M177.6,187.3c-44.2-7.4-82.1-26.9-82.1-26.9
	S57.7,180,13.1,187.3c0,0-11.5,76.6,7.4,119.3C42.6,357.3,95.2,399,95.2,399s52.6-41.7,74.7-92.3C189.2,264,177.6,187.3,177.6,187.3
	L177.6,187.3z"/>
<path fill="#FFFFFF" d="M149.4,213.6c0-1.3,1.6-13.8,1.6-13.8c-4.2-0.6-10.9,3.5-15.1,6.4c-3.2,2.2-6.7,2.6-8.3,2.6
	c-0.3,0-0.6-0.3-0.3-0.6c1-3.5-5.1-1-6.4-0.6c-1.3,0.3-2.9-0.6-3.8-0.6l-6.4-0.3c-2.6,0-6.1-0.6-7.7-1c-0.3,0-0.3-0.3,0-0.6l1.3-1
	c0,0-7.4-5.5-9-7.1s-9.6,5.1-11.2,5.8c-1.6,0.6-2.9,1.6-2.9,1.6S70.6,205,61,207.3c-10.9,2.6-20.8,5.5-20.8,7.7c0,0-0.3,1.3,1.3,1.6
	s2.6,0.6,2.9,1.3c0,0-1.9,0-3.5-0.6s-1.3,1-1,1c0.3,0.3,5.1,3.5,8.7,3.5c0,0,2.2,1.3,3.5,1.6l2.9,0.3c1.3,0.3,6.4,1.6,16.4,1.9
	c9.9,0.3,20.2,0,20.2,0l1,1l5.5,2.6c2.2,1.3,1.9,1.6,3.5,1.6c1.3,0,1.6-1.3,1-2.6c-0.3-0.3-0.6-1-0.6-1.3s-0.3-1.3-0.6-1.3
	c0,0,7.4-0.3,10.6-1c1.3-0.3,3.8,0,3.8-0.6c0-0.3,3.2,0.6,5.1,1.9c1.6,1.3,4.8,1.6,5.1,1.3c0.3,0,0.3-1,0.3-3.5
	c-0.3-2.6,1.3-4.5,1.3-4.5c-1.6,0-1.9-0.6-1.9-0.6c0.6-0.3,1.6-0.6,2.2-0.6c1.6-0.3,10.3,1.6,13.5,4.5s10.9,5.5,10.9,5.5
	S149.4,214.6,149.4,213.6L149.4,213.6z"/>
<path d="M44.6,217.8c-0.6-0.6-1.6-1-2.6-1.3h-0.6c-0.3,0-0.6,0-0.6-0.3c-0.3,0-0.3-0.3-0.6-0.6v-1c0-0.6,0.3-1,0.6-1.3
	s0.6-0.6,1.3-1s1.6-1,2.6-1.3l5.1-1.9c3.5-1,7.1-1.9,10.3-2.9c3.5-1,7.1-1.6,10.6-2.2s7.1-1,10.9-1.3l-0.3,0.3l1.6-1l1-0.3l0.3-0.3
	h0.6l1.3-1l0.6-0.6l2.9-1.9c1-0.6,1.9-1.3,3.2-1.6c0.6-0.3,1.3-0.6,2.2-0.3c0.3,0,0.6,0,1,0.3l0.3,0.3l0.6,0.6
	c1,0.6,1.6,1.3,2.6,2.2l5.5,4.2l1.3,1l-1.3,0.6l-1.3,1c0.3-0.3,0.3-0.6,0.3-1c0-0.3-0.3-0.3-0.6-0.3h1.3c1,0.3,2.2,0.3,3.2,0.3
	c2.2,0.3,4.5,0.3,6.7,0.3h1.6c0.6,0,1.3,0,1.9,0.3c1.3,0.3,1.9,0.6,2.6,0.3c1-0.3,2.2-0.6,3.5-1l1.9-0.3c0.3,0,0.6,0,1.3,0.3
	c0.3,0.3,1,0.6,1.3,1.3c0.3,0.6,0,1,0,1.3v0.3c0-0.3,0-0.3-0.3-0.6h-0.3h0.3h0.6c1,0,2.2-0.3,3.2-0.6s1.9-0.6,2.9-1.3l2.9-1.9
	c1.9-1.3,3.8-2.2,6.1-3.2c1-0.3,2.2-1,3.5-1.3s2.6-0.6,3.8-0.3h1v1l-1,7.1l-0.6,3.5l-0.3,1.6v1.6l0.3,1.6l0.3,1.6l0.6,3.5l1.3,7.1
	l0.3,1.3h-1.6c-2.2-0.6-4.5-1.6-6.4-2.6l-3.2-1.6l-1.6-1l-1.3-1l-2.9-1.6l-3.2-1c-1-0.3-2.2-0.6-3.2-0.6c-1-0.3-2.2-0.3-3.2-0.3
	c-1,0.3-1.9,0.6-2.9,1.3c-1,0.6-1.6,1.3-2.9,1.9c-2.2,1.3-4.5,1.6-6.4,2.2c-2.2,0.6-4.5,1-6.7,1l-6.7,0.6l6.7-0.6
	c2.2-0.3,4.5-0.6,6.7-1.3c2.2-0.6,4.5-1.3,6.4-2.2l2.9-1.9c1-0.6,1.9-1.3,3.2-1.3c1.3-0.3,2.2,0,3.5,0.3c1.3,0.3,2.2,0.3,3.2,0.6
	c2.2,0.6,4.5,1.3,6.4,2.6c1,0.6,1.9,1.6,2.9,1.9c1,0.6,1.9,1.3,2.9,1.6c1.9,1,4.2,1.9,6.4,2.6l-1.3-7.1l-1.3-7.1v-1.9l0.3-1.9
	l0.3-3.5l0.3-7.1c-1,0-2.2,0-3.2,0.3s-2.2,0.6-3.2,1.3c-1.9,1-4.2,1.9-6.1,3.2l-2.9,1.9c-1,0.6-1.9,1-3.2,1.6
	c-1,0.3-2.2,0.6-3.2,0.6H127l-0.3-0.3v-1c0.3-1.3-0.3-1.3-1-1.3h-1.6l-3.2,1c-1.3,0.3-2.2,0-3.5-0.3c-1-0.3-2.2-0.3-3.2-0.3
	c-2.2,0-4.5,0-6.7-0.3l-3.5-0.3h-1.6v-0.6l1.6-1v0.3l-5.5-4.2c-1-0.6-1.9-1.3-2.6-2.2l-0.6-0.6c-0.3-0.3-0.3-0.3-0.6-0.3
	c-0.6,0-1,0-1.6,0.3c-1.9,1-3.8,2.2-5.8,3.5l-2.9,1.9l-1.6,0.6l-1.6,1.9v1c-7.1,0-14.4,0.3-21.2,2.2c-3.5,1-7.1,1.3-10.3,2.2
	l-5.1,1.6c-1,0.3-1,0.6-1.6,1c-0.6,0.3-1,1-1,1.6c0,0.3-0.6,1-0.3,1.3s0.6,0.3,1,0.3c0.3,0,0.6,0.3,1.3,0.3
	C44.2,217.2,44.6,217.5,44.6,217.8"/>
<path fill="none" d="M94.6,196.3"/>
<path d="M57.7,209.8h1c0.6,0.3,1.3,0.6,1.6,1.6c0.3,0.3,0.3,1,0.6,1.6c0,0.3,0,0.6,0.3,0.6l0.3,0.6l1,1.6c0.3,0.6,0.3,1.3,0.3,1.9
	c0,0.6-0.3,1.3-1,1.9c-0.3,0.6-1,1-1.6,1c-0.6,0.3-1.3,0.3-1.6,0.6l-1.6,0.3h-5.5h1.9h2.9c0.3,0,1.3-0.3,1.9-0.3s1.3-0.3,1.6-0.6
	l1.6-1c0.3-0.3,0.6-1,0.6-1.6v-1.9c-0.3-0.6-0.3-1.3-0.6-1.6c0-0.3-0.3-0.6-0.3-0.6c0-0.3,0-0.6-0.3-0.6c0-0.6-0.3-1-0.3-1.3
	c-0.3-1-1-1.3-1.6-1.6C58,209.8,57.7,209.8,57.7,209.8z M44.6,217.5h-2.9c-0.3,0-0.6,0-1-0.3h-0.6v0.6h0.3l0.3,0.3l1,0.3
	c1,0.6,2.2,1.3,3.5,1.6s2.6,0.6,3.5,0.6h0.6l2.2,1c1,0.3,1.3,0.3,2.2,0.3c0.6,0,1,0,1.6,0.3l1.3,0.3l2.6,0.6
	c3.5,0.6,7.1,1.3,10.6,1.3c1.9,0,3.5,0,5.5,0.3l6.4,0.3c3.5,0.3,5.1,0.6,11.5,1l-11.5-0.3H76c-1.9,0-3.8,0-5.8-0.3
	c-3.5-0.3-7.4-0.6-10.9-1.3c-1-0.3-1.9-0.3-2.6-0.6c-1-0.3-1.6-0.6-2.6-0.6s-1.9,0-2.6-0.3c-1-0.3-1.6-0.6-2.6-1.3
	c-1.3,0-2.6-0.3-3.8-1l-3.5-1.6l-1-0.6c-0.3-0.3-0.6-0.3-0.6-0.6s-0.3-0.6,0-1c0.3-0.3,0.6,0,1,0C41.7,217.5,43,217.5,44.6,217.5
	L44.6,217.5z M90.1,225.5l1,0.6c0.6,0.3,1.6,1,2.9,1.3s2.9,0.6,4.5,1.6c0.3,0.3,0.6,0.3,1.3,0.6c0.3,0.3,0.6,0.3,1,0.3h1
	c0.3,0,0.3,0,0.3-0.3s0-0.6-0.3-1V228c0,0-0.3-0.3-0.3-0.6c-0.3-0.3-0.3-0.6-0.3-0.6c0-0.3,0-0.3-0.3-0.6s-0.3-0.6-0.6-0.6
	c-0.6-0.3-1.3-0.6-1.9-0.6s-1.6,0-2.2-0.3c-1.3,0-2.6-0.6-3.2-0.6c-0.6-0.3-1.3-0.3-1.3-0.3s0.3,0,1.3,0.3c0.6,0,1.9,0.3,3.2,0.3
	h2.2c0.6,0,1.6,0.3,2.2,0.6s1.3,1.3,1.3,2.2c0.6,0.6,1,1.6,1,2.6c0,0.3-0.3,1-1,1h-1.3c-0.3,0-1-0.3-1.3-0.6l-1-0.6
	c-1.6-1-2.9-1.3-4.2-1.6c-1.3-0.6-2.2-1.3-2.9-1.6C90.7,226.1,90.4,226.1,90.1,225.5C90.1,225.8,89.8,225.5,90.1,225.5L90.1,225.5z
	 M125.1,218.8c0.3,0.3,0.6,0.3,1,0.3h1c-1,1.3-1.3,2.9-1.3,4.5v3.2l-0.3,0.3h-1.6c-1,0-1.6-0.3-2.2-0.6c-0.3,0-0.6-0.3-1.3-0.6
	c-0.3-0.3-0.6-0.6-1-0.6l-1.9-1.3c-0.6-0.3-1.3-0.6-2.2-0.6h1.3c0.3,0,0.6,0.3,1.3,0.3l2.2,1l1,0.6l1,0.6l2.2,0.6h1v-3.2
	c0-1.6,0.6-3.2,1.6-4.5h-1C125.7,219.1,125.4,219.1,125.1,218.8z M69.3,224.5c-2.2,0-3.8-0.6-4.8-1c-0.6-0.3-1.3-0.3-1.9-0.3v-0.6
	c0.6,0,1.3,0,2.2,0.3c1,0.3,2.6,1,4.8,1c3.2,0,4.8-1.9,5.1-2.2c-2.6-2.2-10.6-1.3-10.6-1.3v-0.6c0.3,0,8.7-1,11.2,1.6v0.3
	C75,222,73.1,224.5,69.3,224.5z M50,213.9c0,1-0.6,1.6-1.6,1.6s-1.6-0.6-1.6-1.6s0.6-1.6,1.6-1.6C49.4,212.3,50,213,50,213.9z"/>
<path fill="#FFFFFF" d="M149.4,303.1c0-1.3,1.6-13.8,1.6-13.8c-4.2-0.6-10.9,3.5-15.1,6.4c-3.2,2.2-6.7,2.6-8.3,2.6
	c-0.3,0-0.6-0.3-0.3-0.6c1-3.5-5.1-1-6.4-0.6s-2.9-0.6-3.8-0.6l-6.4-0.3c-2.6,0-6.1-0.6-7.7-1c-0.3,0-0.3-0.3,0-0.6l1.3-1
	c0,0-7.4-5.5-9-7.1s-9.6,5.1-11.2,5.8c-1.6,0.6-2.9,1.6-2.9,1.6s-10.6,0.6-20.2,2.9c-10.9,2.6-20.8,5.5-20.8,7.7
	c0,0-0.3,1.3,1.3,1.6s2.6,0.6,2.9,1.3c0,0-1.9,0-3.5-0.6s-1.3,1-1,1c0.3,0.3,5.1,3.5,8.7,3.5c0,0,2.2,1.3,3.5,1.6l2.9,0.3
	c1.3,0.3,6.4,0,16.4,0.6c9.9,0.3,20.2-1.3,20.2-1.3c0.3,0,0.6,2.2,1,2.6c2.2,1.3,3.2,2.2,5.5,3.2c2.2,1.3,1.9,1.9,3.5,1.9
	c1.3,0,1.6-1,1-2.2c-0.3-0.3-0.6-2.2-0.6-2.6c0-0.3-0.3-2.9-0.6-2.9c0,0,7.4,1,10.6,0.3c1.3-0.3,3.8,1.3,3.8,1s3.2,0.6,5.1,1.9
	c1.6,1.3,4.8,1.6,5.1,1.3c0.3,0,0.3-1,0.3-3.5c-0.3-2.6,1.3-4.5,1.3-4.5c-1.6,0-1.9-0.6-1.9-0.6c0.6-0.3,1.6-0.6,2.2-0.6
	c1.6-0.3,10.3,1.6,13.5,4.5s10.9,5.5,10.9,5.5S149.4,304.4,149.4,303.1L149.4,303.1z"/>
<path d="M44.6,307.6c-0.6-0.6-1.6-1-2.6-1.3h-0.6c-0.3,0-0.6,0-0.6-0.3c-0.3,0-0.3-0.3-0.6-0.6v-1c0-0.6,0.3-1,0.6-1.3
	s0.6-0.6,1.3-1c0.6-0.3,1.6-1,2.6-1.3l5.1-1.9c3.5-1,7.1-1.9,10.3-2.9c3.5-1,7.1-1.6,10.6-2.2s7.1-1,10.9-1.3l-0.6,0.3l1.6-1l1-0.3
	l0.3-0.3h0.6l1.3-1l1.3-1l2.9-1.9c1-0.6,1.9-1.3,3.2-1.6c0.6-0.3,1.3-0.6,2.2-0.3c0.3,0,0.6,0,1,0.3l0.3,0.3l0.6,0.6
	c1,0.6,1.6,1.3,2.6,2.2l5.5,4.2l1.3,1l-1.3,0.6l-1.3,1c0.3-0.3,0.3-0.6,0.3-1c0-0.3-0.3-0.3-0.6-0.3h1.3c1,0.3,2.2,0.3,3.2,0.3
	c2.2,0.3,4.5,0.3,6.7,0.3h1.6c0.6,0,1.3,0,1.9,0.3c1.3,0.3,1.9,0.6,2.6,0.3c1-0.3,2.2-0.6,3.5-1l1.9-0.3c0.3,0,0.6,0,1.3,0.3
	c0.3,0.3,1,0.6,1.3,1.3c0.3,0.6,0,1,0,1.3v0.3c0-0.3,0-0.3-0.3-0.6h-0.3h0.3h0.6c1,0,2.2-0.3,3.2-0.6c1-0.3,1.9-0.6,2.9-1.3l2.9-1.9
	c1.9-1.3,3.8-2.2,6.1-3.2c1-0.3,2.2-1,3.5-1.3s2.6-0.6,3.8-0.3h1v1l-1,7.1l-1,3.5l-0.3,1.6v1.6l0.3,1.6l0.3,1.6l0.6,3.5l1.3,7.1
	l0.3,1.3l-1.6,0.3c-2.2-0.6-4.5-1.6-6.4-2.6l-3.2-1.6l-1.6-1l-1.3-1l-2.9-1.6l-3.2-1c-1-0.3-2.2-0.6-3.2-0.6c-1-0.3-2.2-0.3-3.2-0.3
	c-1,0.3-1.9,0.6-2.9,1.3c-1,0.6-1.6,1.3-2.9,1.9c-2.2,1.3-4.5,1.6-6.4,2.2c-2.2,0.6-4.5,1-6.7,1l-6.7,0.6l6.7-0.6
	c2.2-0.3,4.5-0.6,6.7-1.3c2.2-0.6,4.5-1.3,6.4-2.2l2.9-1.9c1-0.6,1.9-1.3,3.2-1.3c1.3-0.3,2.2,0,3.5,0.3s2.2,0.3,3.2,0.6
	c2.2,0.6,4.5,1.3,6.4,2.6c1,0.6,1.9,1.6,2.9,1.9c1,0.6,1.9,1.3,2.9,1.6c1.9,1,4.2,1.9,6.4,2.6l-1.3-7.1l-1.3-7.1v-1.9l0.3-1.9
	l0.3-3.5l1-7.1c-1,0-2.2,0-3.2,0.3s-2.2,0.6-3.2,1.3c-1.9,1-4.2,1.9-6.1,3.2l-2.9,1.9c-1,0.6-1.9,1-3.2,1.6c-1,0.3-2.2,0.6-3.2,0.6
	h-1.9l-0.3-0.3v-1c-0.3-0.6-0.6-0.6-1.3-0.6h-1.6l-3.2,1c-1.3,0.3-2.2,0-3.5-0.3c-1-0.3-2.2-0.3-3.2-0.3c-2.2,0-4.5,0-6.7-0.3
	l-3.5-0.3h-1.6v-0.6l1.6-1v0.3l-5.5-4.2c-1-0.6-1.9-1.3-2.6-2.2l-0.6-0.6c-0.3-1.6-0.6-1.6-1-1.6c-0.6,0-1,0-1.6,0.3
	c-1.9,1-3.8,2.2-5.8,3.5l-2.9,1.9l-1.6,0.6l-1.6,0.3v-0.3c-7.1,0-14.4,1.9-21.2,3.5c-3.5,1-7.1,1.9-10.3,2.9l-5.1,1.9
	c-1,0.3-1,0.6-1.6,1.3c-0.6,0.3-1,1-1,1.9c0,0.3-0.6,1-0.3,1.3s0.6,0.3,1,0.3c0.3,0,0.6,0.3,1.3,0.3
	C44.2,306.6,44.6,306.9,44.6,307.6"/>
<path fill="none" d="M94.6,285.8"/>
<path d="M57.7,299.2h1c0.6,0.3,1.3,0.6,1.6,1.6c0.3,0.3,0.3,1,0.6,1.6c0,0.3,0,0.6,0.3,0.6l0.3,0.6l1,1.6c0.3,0.6,0.3,1.3,0.3,1.9
	s-0.3,1.3-1,1.9c-0.3,0.6-1,1-1.6,1c-0.6,0.3-1.3,0.3-1.6,0.6l-1.6,0.3h-5.5h1.9h2.9c0.3,0,1.3-0.3,1.9-0.3s1.3-0.3,1.6-0.6l1.6-1
	c0.3-0.3,0.6-1,0.6-1.6v-1.9c-0.3-0.6-0.3-1.3-0.6-1.6c0-0.3-0.3-0.6-0.3-0.6c0-0.3,0-0.6-0.3-0.6c0-0.6-0.3-1-0.3-1.3
	c-0.3-1-1-1.3-1.6-1.6C58,299.2,57.7,299.2,57.7,299.2L57.7,299.2z M44.6,307.3h-2.9c-0.3,0-0.6,0-1-0.3h-0.6v0.6h0.3l0.3,0.3l1,0.3
	c1,0.6,2.2,1.3,3.5,1.6c1.3,0.3,2.6,0.6,3.5,0.6h0.6l2.2,1c1,0.3,1.3,0.3,2.2,0.3c0.6,0,1,0,1.6,0.3l1.3,0.3l2.6,0.6
	c3.5,0.6,7.1,1.3,10.6,1.3c1.9,0,3.5,0,5.5,0.3l6.4,0.3c3.5,0.3,5.1,0.6,11.5,1l-11.5-0.3H76c-1.9,0-3.8,0-5.8-0.3
	c-3.5-0.3-7.4-0.6-10.9-1.3c-1-0.3-1.9-0.3-2.6-0.6c-1-0.3-1.6-0.6-2.6-0.6s-1.9,0-2.6-0.3c-1-0.3-1.6-0.6-2.6-1.3
	c-1.3,0-2.6-0.3-3.8-1l-3.5-1.6l-1-0.6c-0.3-0.3-0.6-0.3-0.6-0.6s-0.3-0.6,0-1c0.3-0.3,0.6,0,1,0C41.7,306.9,43,306.9,44.6,307.3
	L44.6,307.3z M90.1,315.3l1,0.6c0.6,0.3,1.6,1,2.9,1.3s2.9,0.6,4.5,1.6c0.3,0.3,0.6,0.3,1.3,0.6c0.3,0.3,0.6,0.3,1,0.3h1
	c0.3,0,0.3,0,0.3-0.3s0-0.6-0.3-1v-0.6c0,0-0.3-0.3-0.3-0.6c-0.3-0.3-0.3-0.6-0.3-0.6c0-0.3,0-0.3-0.3-0.6c-0.3-0.3-0.3-0.6-0.6-0.6
	c-0.6-0.3-1.3-0.6-1.9-0.6s-1.6,0-2.2-0.3c-1.3,0-2.6-0.6-3.2-0.6c-0.6-0.3-1.3-0.3-1.3-0.3s0.3,0,1.3,0.3c0.6,0,1.9,0.3,3.2,0.3
	h2.2c0.6,0,1.6,0.3,2.2,0.6c0.6,0.3,1.3,1.3,1.3,2.2c0.6,0.6,1,1.6,1,2.6c0,0.3-0.3,1-1,1h-1.3c-0.3,0-1-0.3-1.3-0.6l-1-0.6
	c-1.6-1-2.9-1.3-4.2-1.6c-1.3-0.6-2.2-1.3-2.9-1.6L90.1,315.3L90.1,315.3z M125.1,308.2c0.3,0.3,0.6,0.3,1,0.3h1
	c-1,1.3-1.3,2.9-1.3,4.5v3.2l-0.3,0.3h-1.6c-1,0-1.6-0.3-2.2-0.6c-0.3,0-0.6-0.3-1.3-0.6c-0.3-0.3-0.6-0.6-1-0.6l-1.9-1.3
	c-0.6-0.3-1.3-0.6-2.2-0.6h1.3c0.3,0,0.6,0.3,1.3,0.3l2.2,1l1,0.6l1,0.6l2.2,0.6h1v-3.2c0-1.6,0.6-3.2,1.6-4.5h-1
	C125.7,308.9,125.4,308.5,125.1,308.2L125.1,308.2z M69.3,314c-2.2,0-3.8-0.6-4.8-1c-0.6-0.3-1.3-0.3-1.9-0.3v-0.6
	c0.6,0,1.3,0,2.2,0.3c1,0.3,2.6,1,4.8,1c3.2,0,4.8-1.9,5.1-2.2c-2.6-2.2-10.6-1.3-10.6-1.3v-0.6c0.3,0,8.7-1,11.2,1.6v0.3
	C75,311.4,73.1,314,69.3,314L69.3,314z M50,303.4c0,1-0.6,1.6-1.6,1.6s-1.6-0.6-1.6-1.6s0.6-1.6,1.6-1.6S50,302.8,50,303.4z"/>
<path fill="#FFFFFF" d="M149.4,258.2c0-1.3,1.6-13.8,1.6-13.8c-4.2-0.6-10.9,3.5-15.1,6.4c-3.2,2.2-6.7,2.6-8.3,2.6
	c-0.3,0-0.6-0.3-0.3-0.6c1-3.5-5.1-1-6.4-0.6c-1.3,0.3-2.9-0.6-3.8-0.6l-6.4-0.3c-2.6,0-6.1-0.6-7.7-1c-0.3,0-0.3-0.3,0-0.6l1.3-1
	c0,0-7.4-5.5-9-7.1s-9.6,5.1-11.2,5.8c-1.6,0.6-2.9,1.6-2.9,1.6s-10.6,0.6-20.2,2.9c-10.9,2.6-20.8,5.5-20.8,7.7
	c0,0-0.3,1.3,1.3,1.6c1.6,0.3,2.6,0.6,2.9,1.3c0,0-1.9,0-3.5-0.6s-1.3,1-1,1c0.3,0.3,5.1,3.5,8.7,3.5c0,0,2.2,1.3,3.5,1.6l2.9,0.3
	c1.3,0.3,6.4,3.2,16.4,3.5c9.9,0.3,20.2,1.6,20.2,1.6c0.3,0,0.6-1,1-0.6c2.2,1.3,3.2,0.6,5.5,1.6c2.2,1.3,1.9,1,3.5,1
	c1.3,0,1.6-1.3,1-2.6c-0.3-0.3-0.6,0.6-0.6,0.3l-0.6,0.3c0,0,7.4-1.9,10.6-2.6c1.3-0.3,3.8-1.9,3.8-2.2c0-0.3,3.2,0.6,5.1,1.9
	c1.6,1.3,4.8,1.6,5.1,1.3c0.3,0,0.3-1,0.3-3.5c-0.3-2.6,1.3-4.5,1.3-4.5c-1.6,0-1.9-0.6-1.9-0.6c0.6-0.3,1.6-0.6,2.2-0.6
	c1.6-0.3,10.3,1.6,13.5,4.5s10.9,5.5,10.9,5.5S149.4,259.5,149.4,258.2L149.4,258.2z"/>
<path d="M44.6,262.7c-0.6-0.6-1.6-1-2.6-1.3h-0.6c-0.3,0-0.6,0-0.6-0.3c-0.3,0-0.3-0.3-0.6-0.6v-1c0-0.6,0.3-1,0.6-1.3
	s0.6-0.6,1.3-1s1.6-1,2.6-1.3l5.1-1.9c3.5-1,7.1-1.9,10.3-2.9c3.5-1,7.1-1.6,10.6-2.2c3.5-0.6,7.1-1,10.9-1.3l-0.3,0.3l1.6-1l1-0.3
	l0.3-0.3h0.6l1.3-1l0.6-0.6l2.9-1.9c1-0.6,1.9-1.3,3.2-1.6c0.6-0.3,1.3-0.6,2.2-0.3c0.3,0,0.6,0,1,0.3l0.3,0.3l0.6,0.6
	c1,0.6,1.6,1.3,2.6,2.2l5.5,4.2l1.3,1l-1.3,0.6l-1.3,1c0.3-0.3,0.3-0.6,0.3-1c0-0.3-0.3-0.3-0.6-0.3h1.3c1,0.3,2.2,0.3,3.2,0.3
	c2.2,0.3,4.5,0.3,6.7,0.3h1.6c0.6,0,1.3,0,1.9,0.3c1.3,0.3,1.9,0.6,2.6,0.3c1-0.3,2.2-0.6,3.5-1l1.9-0.3c0.3,0,0.6,0,1.3,0.3
	c0.3,0.3,1,0.6,1.3,1.3c0.3,0.6,0,1,0,1.3v0.3c0-0.3,0-0.3-0.3-0.6h-0.3h0.3h0.6c1,0,2.2-0.3,3.2-0.6s1.9-0.6,2.9-1.3l2.9-1.9
	c1.9-1.3,3.8-2.2,6.1-3.2c1-0.3,2.2-1,3.5-1.3s2.6-0.6,3.8-0.3h1v1l-1,7.1l-0.6,3.5l-0.3,1.6v1.6l0.3,1.6l0.3,1.6l0.6,3.5l1.3,7.1
	l0.3,1.3h-1.6c-2.2-0.6-4.5-1.6-6.4-2.6l-3.2-1.6l-1.6-1l-1.3-1l-2.9-1.6l-3.2-1c-1-0.3-2.2-0.6-3.2-0.6c-1-0.3-2.2-0.3-3.2-0.3
	c-1,0.3-1.9,0.6-2.9,1.3c-1,0.6-1.6,1.3-2.9,1.9c-2.2,1.3-4.5,1.6-6.4,2.2c-2.2,0.6-4.5,1-6.7,1L101,271l6.7-0.6
	c2.2-0.3,4.5-0.6,6.7-1.3c2.2-0.6,4.5-1.3,6.4-2.2l2.9-1.9c1-0.6,1.9-1.3,3.2-1.3c1.3-0.3,2.2,0,3.5,0.3s2.2,0.3,3.2,0.6
	c2.2,0.6,4.5,1.3,6.4,2.6c1,0.6,1.9,1.6,2.9,1.9c1,0.6,1.9,1.3,2.9,1.6c1.9,1,4.2,1.9,6.4,2.6l-1.3-7.1l-1.3-7.1v-1.9l0.3-1.9
	l0.3-3.5l1-7.1c-1,0-2.2,0-3.2,0.3s-2.2,0.6-3.2,1.3c-1.9,1-4.2,1.9-6.1,3.2l-2.9,1.9c-1,0.6-1.9,1-3.2,1.6c-1,0.3-2.2,0.6-3.2,0.6
	h-1.9l-0.3-0.3v-1c-0.3-1.3-1-1.3-1.6-1.3H124l-3.2,1c-1.3,0.3-2.2,0-3.5-0.3c-1-0.3-2.2-0.3-3.2-0.3c-2.2,0-4.5,0-6.7-0.3l-3.5-0.3
	h-1.6v-0.6l1.6-1v0.3l-5.5-4.2c-1-0.6-1.9-1.3-2.6-2.2l-0.6-0.6c-0.3-0.3-0.3-0.3-0.6-0.3c-0.6,0-1,0-1.6,0.3
	c-1.9,1-3.8,2.2-5.8,3.5l-2.9,1.9l-1.6,0.6l-1.6,0.3v-0.6c-7.1,0-14.4,1.9-21.2,3.8c-3.5,1-7.1,1.9-10.3,2.9l-5.1,1.9
	c-1,0.3-1,0.6-1.6,1.3c-0.6,0.3-1,1-1,1.9c0,0.3-0.6,1-0.3,1.3s0.6,0.3,1,0.3c0.3,0,0.6,0.3,1.3,0.3C44.2,261.7,44.6,262,44.6,262.7
	"/>
<path fill="none" d="M94.6,241.2"/>
<path d="M57.7,254.3h1c0.6,0.3,1.3,0.6,1.6,1.6c0.3,0.3,0.3,1,0.6,1.6c0,0.3,0,0.6,0.3,0.6l0.3,0.6l1,1.6c0.3,0.6,0.3,1.3,0.3,1.9
	s-0.3,1.3-1,1.9c-0.3,0.6-1,1-1.6,1c-0.6,0.3-1.3,0.3-1.6,0.6L57,266h-5.5h1.9h2.9c0.3,0,1.3-0.3,1.9-0.3s1.3-0.3,1.6-0.6l1.6-1
	c0.3-0.3,0.6-1,0.6-1.6v-1.9c-0.3-0.6-0.3-1.3-0.6-1.6c0-0.3-0.3-0.6-0.3-0.6c0-0.3,0-0.6-0.3-0.6c0-0.6-0.3-1-0.3-1.3
	c-0.3-1-1-1.3-1.6-1.6C58,254.3,57.7,254.7,57.7,254.3L57.7,254.3z M44.6,262.4h-2.9c-0.3,0-0.6,0-1-0.3h-0.6v0.6h0.3l0.3,0.3l1,0.3
	c1,0.6,2.2,1.3,3.5,1.6c1.3,0.3,2.6,0.6,3.5,0.6h0.6l2.2,1c1,0.3,1.3,0.3,2.2,0.3c0.6,0,1,0,1.6,0.3l1.3,0.3l2.6,0.6
	c3.5,0.6,7.1,1.3,10.6,1.3c1.9,0,3.5,0,5.5,0.3l6.4,0.3c3.5,0.3,5.1,0.6,11.5,1l-11.5-0.3H76c-1.9,0-3.8,0-5.8-0.3
	c-3.5-0.3-7.4-0.6-10.9-1.3c-1-0.3-1.9-0.3-2.6-0.6c-1-0.3-1.6-0.6-2.6-0.6s-1.9,0-2.6-0.3c-1-0.3-1.6-0.6-2.6-1.3
	c-1.3,0-2.6-0.3-3.8-1l-3.5-1.6l-1-0.6c-0.3-0.3-0.6-0.3-0.6-0.6s-0.3-0.6,0-1c0.3-0.3,0.6,0,1,0C41.7,262,43,262.4,44.6,262.4
	L44.6,262.4z M90.1,270.4l1,0.6c0.6,0.3,1.6,1,2.9,1.3s2.9,0.6,4.5,1.6c0.3,0.3,0.6,0.3,1.3,0.6c0.3,0.3,0.6,0.3,1,0.3h1
	c0.3,0,0.3,0,0.3-0.3s0-0.6-0.3-1v-0.6c0,0-0.3-0.3-0.3-0.6c-0.3-0.3-0.3-0.6-0.3-0.6c0-0.3,0-0.3-0.3-0.6c-0.3-0.3-0.3-0.6-0.6-0.6
	c-0.6-0.3-1.3-0.6-1.9-0.6s-1.6,0-2.2-0.3c-1.3,0-2.6-0.6-3.2-0.6c-0.6-0.3-1.3-0.3-1.3-0.3s0.3,0,1.3,0.3c0.6,0,1.9,0.3,3.2,0.3
	h2.2c0.6,0,1.6,0.3,2.2,0.6c0.6,0.3,1.3,1.3,1.3,2.2c0.6,0.6,1,1.6,1,2.6c0,0.3-0.3,1-1,1h-1.3c-0.3,0-1-0.3-1.3-0.6l-1-0.6
	c-1.6-1-2.9-1.3-4.2-1.6c-1.3-0.6-2.2-1.3-2.9-1.6C90.7,271,90.4,270.7,90.1,270.4L90.1,270.4z M125.1,263.6c0.3,0.3,0.6,0.3,1,0.3
	h1c-1,1.3-1.3,2.9-1.3,4.5v3.2l-0.3,0.3h-1.6c-1,0-1.6-0.3-2.2-0.6c-0.3,0-0.6-0.3-1.3-0.6c-0.3-0.3-0.6-0.6-1-0.6l-1.9-1.3
	c-0.6-0.3-1.3-0.6-2.2-0.6h1.3c0.3,0,0.6,0.3,1.3,0.3l2.2,1l1,0.6l1,0.6l2.2,0.6h1v-3.2c0-1.6,0.6-3.2,1.6-4.5h-1
	C125.7,264,125.4,264,125.1,263.6L125.1,263.6z M69.3,269.4c-2.2,0-3.8-0.6-4.8-1c-0.6-0.3-1.3-0.3-1.9-0.3v-0.6
	c0.6,0,1.3,0,2.2,0.3c1,0.3,2.6,1,4.8,1c3.2,0,4.8-1.9,5.1-2.2c-2.6-2.2-10.6-1.3-10.6-1.3v-0.6c0.3,0,8.7-1,11.2,1.6v0.3
	C75,266.9,73.1,269.4,69.3,269.4L69.3,269.4z M50,258.8c0,1-0.6,1.6-1.6,1.6s-1.6-0.6-1.6-1.6s0.6-1.6,1.6-1.6
	C49.4,257.2,50,257.9,50,258.8z"/>
<g>
	<path d="M235.6,368.6c0-2.9,0.4-5.5,1.2-7.8s2-4.3,3.5-5.9s3.2-2.9,5.3-3.7c2-0.9,4.2-1.3,6.7-1.3s4.6,0.5,6.2,1.4
		c1.7,0.9,3,2,4.1,3.1l-2.6,2.9c-0.9-1-2-1.8-3.2-2.4c-1.2-0.6-2.7-1-4.5-1s-3.5,0.3-4.9,1c-1.5,0.7-2.7,1.6-3.7,2.9
		s-1.8,2.8-2.4,4.6c-0.6,1.8-0.9,3.8-0.9,6c0,2.3,0.3,4.3,0.8,6.1c0.5,1.8,1.3,3.4,2.3,4.6c1,1.3,2.3,2.3,3.7,3c1.5,0.7,3.2,1,5.1,1
		c1.3,0,2.5-0.2,3.7-0.6s2.1-0.9,2.8-1.6v-9.4h-7.6v-3.8H263v15.2c-1.2,1.2-2.7,2.2-4.6,3s-4.1,1.2-6.5,1.2s-4.6-0.4-6.5-1.3
		c-2-0.8-3.7-2.1-5.1-3.7c-1.4-1.6-2.5-3.6-3.4-5.9C236,374.1,235.6,371.5,235.6,368.6z"/>
	<path d="M269.2,373.3c0-2.2,0.3-4.2,1-5.9c0.7-1.7,1.6-3.2,2.7-4.4c1.1-1.2,2.4-2.1,3.8-2.8c1.4-0.6,2.9-1,4.5-1
		c1.7,0,3.2,0.3,4.5,0.9s2.5,1.4,3.4,2.5s1.6,2.4,2.1,4c0.5,1.5,0.7,3.3,0.7,5.2c0,1-0.1,1.8-0.2,2.5h-18c0.2,2.9,1.1,5.2,2.7,6.9
		c1.6,1.7,3.7,2.5,6.2,2.5c1.3,0,2.5-0.2,3.5-0.6c1.1-0.4,2.1-0.9,3.1-1.5l1.6,3c-1.2,0.7-2.5,1.4-3.9,1.9s-3.1,0.8-4.9,0.8
		s-3.5-0.3-5-1c-1.6-0.6-2.9-1.6-4.1-2.8c-1.2-1.2-2.1-2.6-2.7-4.4S269.2,375.5,269.2,373.3z M287.9,371.3c0-2.8-0.6-4.8-1.7-6.3
		c-1.2-1.4-2.8-2.2-4.9-2.2c-1,0-1.9,0.2-2.7,0.6c-0.9,0.4-1.6,0.9-2.3,1.6c-0.7,0.7-1.3,1.6-1.7,2.6c-0.5,1-0.8,2.2-0.9,3.6
		L287.9,371.3L287.9,371.3z"/>
	<path d="M298.5,359.9h3.7l0.4,4.8h0.2c0.9-1.7,2-3,3.3-4s2.7-1.5,4.3-1.5c1.1,0,2,0.2,2.9,0.5l-0.9,4c-0.4-0.1-0.8-0.3-1.2-0.3
		c-0.4-0.1-0.8-0.1-1.4-0.1c-1.1,0-2.3,0.5-3.5,1.4s-2.3,2.5-3.2,4.8v17.2h-4.5L298.5,359.9L298.5,359.9z"/>
	<path d="M317.6,359.9h3.7l0.4,3.9h0.2c1.2-1.3,2.4-2.4,3.8-3.2c1.4-0.9,2.9-1.3,4.5-1.3c2.1,0,3.7,0.4,4.8,1.3
		c1.2,0.9,2,2.2,2.6,3.8c1.4-1.5,2.8-2.8,4.2-3.7c1.4-0.9,2.9-1.4,4.6-1.4c2.8,0,4.8,0.9,6.1,2.6c1.3,1.8,2,4.4,2,7.8v16.9H350
		v-16.3c0-2.5-0.4-4.4-1.2-5.5c-0.8-1.1-2.1-1.7-3.7-1.7c-2,0-4.3,1.4-6.7,4.1v19.4h-4.5v-16.3c0-2.5-0.4-4.4-1.2-5.5
		c-0.8-1.1-2.1-1.7-3.8-1.7c-2,0-4.3,1.4-6.7,4.1v19.4h-4.5L317.6,359.9L317.6,359.9z"/>
	<path d="M361.9,379.7c0-2.9,1.3-5.2,3.9-6.7c2.6-1.6,6.8-2.6,12.5-3.3c0-0.8-0.1-1.7-0.2-2.5c-0.2-0.8-0.5-1.5-0.9-2.1
		s-1-1.1-1.7-1.5s-1.6-0.6-2.7-0.6c-1.6,0-3,0.3-4.4,0.9c-1.3,0.6-2.5,1.2-3.6,2l-1.8-3.1c1.2-0.8,2.8-1.6,4.6-2.3
		c1.8-0.8,3.8-1.1,5.9-1.1c3.3,0,5.6,1,7.1,3s2.2,4.7,2.2,8v16.4h-3.7l-0.4-3.2h-0.1c-1.3,1.1-2.7,2-4.2,2.7
		c-1.5,0.8-3.1,1.1-4.7,1.1c-2.3,0-4.2-0.7-5.6-2C362.6,384,361.9,382.1,361.9,379.7z M366.3,379.3c0,1.5,0.4,2.6,1.3,3.3
		c0.9,0.7,2,1,3.3,1s2.5-0.3,3.7-0.9s2.4-1.5,3.7-2.7v-7.4c-2.2,0.3-4.1,0.6-5.7,1c-1.5,0.4-2.8,0.9-3.7,1.4s-1.6,1.2-2,1.9
		C366.5,377.7,366.3,378.5,366.3,379.3z"/>
	<path d="M391.3,359.9h3.7l0.4,3.9h0.2c1.3-1.3,2.6-2.4,4-3.2c1.4-0.9,3.1-1.3,4.9-1.3c2.8,0,4.9,0.9,6.2,2.6c1.3,1.8,2,4.4,2,7.8
		v16.9h-4.5v-16.3c0-2.5-0.4-4.4-1.2-5.5c-0.8-1.1-2.1-1.7-3.9-1.7c-1.4,0-2.6,0.3-3.7,1s-2.3,1.7-3.6,3.1v19.4h-4.5V359.9z"/>
	<path d="M433,350.5h4.6v36.1H433V350.5z"/>
	<path d="M447,359.9h3.7l0.4,3.9h0.2c1.3-1.3,2.6-2.4,4-3.2c1.4-0.9,3.1-1.3,4.9-1.3c2.8,0,4.9,0.9,6.2,2.6s2,4.4,2,7.8v16.9h-4.5
		v-16.3c0-2.5-0.4-4.4-1.2-5.5c-0.8-1.1-2.1-1.7-3.8-1.7c-1.4,0-2.6,0.3-3.7,1s-2.3,1.7-3.6,3.1v19.4H447V359.9z"/>
	<path d="M476.4,380.5c1.2,1,2.4,1.7,3.6,2.3c1.2,0.6,2.6,0.9,4.3,0.9c1.8,0,3.1-0.4,4-1.2c0.9-0.8,1.3-1.8,1.3-3
		c0-0.7-0.2-1.3-0.6-1.8s-0.8-1-1.4-1.3c-0.6-0.4-1.2-0.7-2-1c-0.7-0.3-1.5-0.6-2.2-0.9c-1-0.3-1.9-0.7-2.9-1.1s-1.8-0.9-2.6-1.5
		c-0.8-0.6-1.4-1.3-1.8-2.1c-0.5-0.8-0.7-1.8-0.7-2.9s0.2-2.1,0.6-3s1-1.7,1.8-2.4c0.8-0.7,1.8-1.2,2.9-1.6s2.4-0.6,3.8-0.6
		c1.7,0,3.2,0.3,4.6,0.9s2.6,1.3,3.7,2.1l-2.1,2.9c-0.9-0.7-1.9-1.3-2.9-1.7c-1-0.4-2.1-0.7-3.2-0.7c-1.7,0-2.9,0.4-3.7,1.2
		c-0.8,0.8-1.2,1.7-1.2,2.7c0,0.6,0.2,1.2,0.5,1.6c0.3,0.5,0.8,0.9,1.3,1.2c0.6,0.3,1.2,0.7,1.9,0.9c0.7,0.3,1.5,0.6,2.2,0.9
		c1,0.4,1.9,0.8,2.9,1.2c1,0.4,1.8,0.9,2.6,1.5c0.8,0.6,1.4,1.3,1.9,2.2c0.5,0.9,0.7,1.9,0.7,3.2c0,1.1-0.2,2.1-0.6,3.1
		s-1,1.8-1.9,2.5c-0.8,0.7-1.9,1.3-3.1,1.7s-2.6,0.6-4.2,0.6c-1.9,0-3.7-0.3-5.4-1s-3.2-1.6-4.5-2.6L476.4,380.5z"/>
	<path d="M504.6,388.9v9h-4.5v-38h3.7l0.4,3.1h0.2c1.2-1,2.5-1.9,4-2.6c1.4-0.7,3-1.1,4.5-1.1c1.7,0,3.2,0.3,4.6,1
		c1.3,0.6,2.4,1.6,3.3,2.8c0.9,1.2,1.5,2.6,2,4.3c0.5,1.7,0.7,3.5,0.7,5.6c0,2.3-0.3,4.3-0.9,6.1c-0.6,1.8-1.5,3.3-2.5,4.5
		c-1.1,1.2-2.3,2.2-3.7,2.8c-1.4,0.6-2.9,1-4.4,1c-1.2,0-2.5-0.3-3.7-0.8s-2.5-1.3-3.7-2.3L504.6,388.9z M504.6,380.7
		c1.2,1,2.4,1.8,3.5,2.2c1.1,0.4,2.1,0.6,3,0.6c1.1,0,2.1-0.2,3.1-0.7c0.9-0.5,1.7-1.2,2.4-2.1s1.2-2,1.6-3.3
		c0.4-1.3,0.6-2.8,0.6-4.5c0-1.5-0.1-2.8-0.4-4c-0.3-1.2-0.7-2.2-1.2-3.1c-0.6-0.9-1.3-1.5-2.2-2s-2-0.7-3.2-0.7
		c-1.1,0-2.3,0.3-3.4,0.9c-1.2,0.6-2.4,1.5-3.7,2.7L504.6,380.7L504.6,380.7z"/>
	<path d="M533,354.4c-0.9,0-1.6-0.3-2.2-0.8c-0.6-0.6-0.9-1.2-0.9-2.1s0.3-1.6,0.9-2.1c0.6-0.5,1.3-0.8,2.2-0.8s1.6,0.3,2.2,0.8
		c0.6,0.5,0.9,1.2,0.9,2.1c0,0.8-0.3,1.5-0.9,2.1C534.6,354.1,533.9,354.4,533,354.4z M530.7,359.9h4.5v26.7h-4.5V359.9z"/>
	<path d="M544.2,359.9h3.7l0.4,4.8h0.2c0.9-1.7,2-3,3.3-4s2.7-1.5,4.3-1.5c1.1,0,2,0.2,2.9,0.5l-0.9,4c-0.4-0.1-0.8-0.3-1.2-0.3
		c-0.4-0.1-0.8-0.1-1.4-0.1c-1.1,0-2.3,0.5-3.5,1.4s-2.3,2.5-3.2,4.8v17.2h-4.5L544.2,359.9L544.2,359.9z"/>
	<path d="M560.7,373.3c0-2.2,0.3-4.2,1-5.9c0.7-1.7,1.6-3.2,2.7-4.4s2.4-2.1,3.8-2.8c1.4-0.6,2.9-1,4.5-1c1.7,0,3.2,0.3,4.5,0.9
		s2.5,1.4,3.4,2.5s1.6,2.4,2.1,4c0.5,1.5,0.7,3.3,0.7,5.2c0,1-0.1,1.8-0.2,2.5h-18c0.2,2.9,1.1,5.2,2.7,6.9s3.7,2.5,6.2,2.5
		c1.3,0,2.5-0.2,3.5-0.6c1.1-0.4,2.1-0.9,3.1-1.5l1.6,3c-1.2,0.7-2.5,1.4-3.9,1.9s-3.1,0.8-4.9,0.8c-1.8,0-3.5-0.3-5-1
		c-1.6-0.6-2.9-1.6-4.1-2.8c-1.2-1.2-2.1-2.6-2.7-4.4C561.1,377.4,560.7,375.5,560.7,373.3z M579.4,371.3c0-2.8-0.6-4.8-1.7-6.3
		c-1.2-1.4-2.8-2.2-4.9-2.2c-1,0-1.9,0.2-2.7,0.6s-1.6,0.9-2.3,1.6s-1.3,1.6-1.7,2.6c-0.5,1-0.8,2.2-0.9,3.6L579.4,371.3
		L579.4,371.3z"/>
	<path d="M588.1,373.3c0-2.2,0.3-4.1,1-5.9c0.6-1.7,1.5-3.2,2.6-4.4c1.1-1.2,2.3-2.1,3.7-2.8c1.4-0.7,2.9-1,4.4-1s2.9,0.3,4,0.8
		c1.1,0.6,2.3,1.3,3.5,2.3l-0.2-4.6v-10.3h4.6v39.2H608l-0.4-3.1h-0.2c-1.1,1-2.3,1.9-3.7,2.7s-2.9,1.1-4.4,1.1
		c-3.4,0-6.1-1.2-8.1-3.6S588.1,377.8,588.1,373.3z M592.8,373.2c0,3.2,0.6,5.7,1.9,7.5c1.3,1.8,3.1,2.7,5.4,2.7
		c1.2,0,2.4-0.3,3.5-0.9s2.2-1.5,3.3-2.8v-14c-1.1-1-2.2-1.8-3.3-2.2c-1-0.4-2.1-0.6-3.2-0.6c-1.1,0-2.1,0.2-3,0.7s-1.8,1.2-2.4,2.1
		c-0.7,0.9-1.2,2-1.6,3.2C593,370.3,592.8,371.7,592.8,373.2z"/>
	<path d="M632.1,350.5h4.6v15.1h16.8v-15.1h4.6v36.1h-4.6v-17h-16.8v17h-4.6V350.5z"/>
	<path d="M665.5,373.3c0-2.2,0.3-4.2,1-6c0.7-1.7,1.6-3.2,2.7-4.4s2.4-2.1,3.9-2.8c1.5-0.6,3.1-0.9,4.7-0.9c1.6,0,3.2,0.3,4.7,0.9
		s2.8,1.5,3.9,2.8c1.1,1.2,2,2.7,2.7,4.4c0.7,1.7,1,3.7,1,6c0,2.2-0.3,4.2-1,5.9c-0.7,1.7-1.6,3.2-2.7,4.4c-1.1,1.2-2.4,2.1-3.9,2.7
		s-3.1,0.9-4.7,0.9c-1.7,0-3.2-0.3-4.7-0.9s-2.8-1.5-3.9-2.7s-2-2.7-2.7-4.4C665.9,377.5,665.5,375.5,665.5,373.3z M670.2,373.3
		c0,1.5,0.2,2.9,0.5,4.2c0.4,1.2,0.9,2.3,1.6,3.2s1.5,1.6,2.4,2.1s2,0.7,3.1,0.7s2.2-0.2,3.1-0.7c1-0.5,1.8-1.2,2.4-2.1
		s1.2-2,1.6-3.2c0.4-1.2,0.6-2.6,0.6-4.2s-0.2-2.9-0.6-4.2s-0.9-2.4-1.6-3.3c-0.7-0.9-1.5-1.6-2.4-2.1c-1-0.5-2-0.7-3.1-0.7
		s-2.2,0.2-3.1,0.7s-1.8,1.2-2.4,2.1c-0.7,0.9-1.2,2-1.6,3.3C670.4,370.3,670.2,371.7,670.2,373.3z"/>
	<path d="M697.3,359.9h3.7l0.4,3.9h0.2c1.2-1.3,2.4-2.4,3.8-3.2c1.4-0.9,2.9-1.3,4.5-1.3c2.1,0,3.7,0.4,4.8,1.3
		c1.2,0.9,2,2.2,2.6,3.8c1.4-1.5,2.8-2.8,4.2-3.7c1.4-0.9,2.9-1.4,4.6-1.4c2.8,0,4.8,0.9,6.1,2.6c1.3,1.8,2,4.4,2,7.8v16.9h-4.5
		v-16.3c0-2.5-0.4-4.4-1.2-5.5s-2.1-1.7-3.7-1.7c-2,0-4.3,1.4-6.7,4.1v19.4h-4.5v-16.3c0-2.5-0.4-4.4-1.2-5.5s-2.1-1.7-3.8-1.7
		c-2,0-4.3,1.4-6.7,4.1v19.4h-4.5L697.3,359.9L697.3,359.9z"/>
	<path d="M740.9,373.3c0-2.2,0.3-4.2,1-5.9c0.7-1.7,1.6-3.2,2.7-4.4s2.4-2.1,3.8-2.8c1.4-0.6,2.9-1,4.5-1c1.7,0,3.2,0.3,4.5,0.9
		s2.5,1.4,3.4,2.5s1.6,2.4,2.1,4c0.5,1.5,0.7,3.3,0.7,5.2c0,1-0.1,1.8-0.2,2.5h-18c0.2,2.9,1.1,5.2,2.7,6.9s3.7,2.5,6.2,2.5
		c1.3,0,2.5-0.2,3.5-0.6c1.1-0.4,2.1-0.9,3.1-1.5l1.6,3c-1.2,0.7-2.5,1.4-3.9,1.9s-3.1,0.8-4.9,0.8c-1.8,0-3.5-0.3-5-1
		c-1.6-0.6-2.9-1.6-4.1-2.8c-1.2-1.2-2.1-2.6-2.7-4.4C741.3,377.4,740.9,375.5,740.9,373.3z M759.6,371.3c0-2.8-0.6-4.8-1.7-6.3
		c-1.2-1.4-2.8-2.2-4.9-2.2c-1,0-1.9,0.2-2.7,0.6s-1.6,0.9-2.3,1.6s-1.3,1.6-1.7,2.6c-0.5,1-0.8,2.2-0.9,3.6L759.6,371.3
		L759.6,371.3z"/>
	<path d="M770.2,347.4h4.5v10.7l-0.1,4.8c1.2-1.1,2.5-2,4-2.7s2.9-1.1,4.4-1.1c1.7,0,3.2,0.3,4.6,1c1.3,0.6,2.4,1.6,3.3,2.8
		c0.9,1.2,1.6,2.6,2,4.3c0.5,1.7,0.7,3.5,0.7,5.6c0,2.3-0.3,4.3-0.9,6.1c-0.6,1.8-1.5,3.3-2.5,4.6c-1.1,1.2-2.3,2.2-3.7,2.8
		c-1.4,0.6-2.9,1-4.4,1c-1.2,0-2.5-0.3-3.9-0.9s-2.6-1.4-3.8-2.4h-0.2l-0.4,2.6h-3.6L770.2,347.4L770.2,347.4z M774.7,380.7
		c1.2,1,2.3,1.8,3.5,2.2c1.2,0.4,2.2,0.6,3.1,0.6c1.1,0,2.1-0.2,3.1-0.7c0.9-0.5,1.7-1.2,2.4-2.1s1.2-2,1.6-3.3
		c0.4-1.3,0.6-2.8,0.6-4.5c0-1.5-0.1-2.8-0.4-4c-0.3-1.2-0.7-2.2-1.2-3.1c-0.6-0.9-1.3-1.5-2.2-2s-2-0.7-3.2-0.7
		c-2.2,0-4.5,1.2-7.2,3.6L774.7,380.7L774.7,380.7z"/>
	<path d="M800.7,359.9h3.7l0.4,4.8h0.2c0.9-1.7,2-3,3.3-4s2.7-1.5,4.3-1.5c1.1,0,2,0.2,2.9,0.5l-0.9,4c-0.4-0.1-0.8-0.3-1.2-0.3
		c-0.4-0.1-0.8-0.1-1.4-0.1c-1.1,0-2.3,0.5-3.5,1.4s-2.3,2.5-3.2,4.8v17.2h-4.5L800.7,359.9L800.7,359.9z"/>
	<path d="M817.3,373.3c0-2.2,0.3-4.2,1-5.9c0.7-1.7,1.6-3.2,2.7-4.4s2.4-2.1,3.8-2.8c1.4-0.6,2.9-1,4.5-1c1.7,0,3.2,0.3,4.5,0.9
		s2.5,1.4,3.4,2.5s1.6,2.4,2.1,4c0.5,1.5,0.7,3.3,0.7,5.2c0,1-0.1,1.8-0.2,2.5h-18c0.2,2.9,1.1,5.2,2.7,6.9s3.7,2.5,6.2,2.5
		c1.3,0,2.5-0.2,3.5-0.6c1.1-0.4,2.1-0.9,3.1-1.5l1.6,3c-1.2,0.7-2.5,1.4-3.9,1.9s-3.1,0.8-4.9,0.8c-1.8,0-3.5-0.3-5-1
		c-1.6-0.6-2.9-1.6-4.1-2.8c-1.2-1.2-2.1-2.6-2.7-4.4C817.6,377.4,817.3,375.5,817.3,373.3z M836,371.3c0-2.8-0.6-4.8-1.7-6.3
		c-1.2-1.4-2.8-2.2-4.9-2.2c-1,0-1.9,0.2-2.7,0.6s-1.6,0.9-2.3,1.6s-1.3,1.6-1.7,2.6c-0.5,1-0.8,2.2-0.9,3.6L836,371.3L836,371.3z"
		/>
	<path d="M843.6,359.9h4.6l4,15.5c0.3,1.3,0.6,2.5,0.8,3.7s0.5,2.4,0.8,3.7h0.2c0.3-1.2,0.6-2.5,0.9-3.7c0.3-1.2,0.6-2.5,0.9-3.7
		l4.1-15.5h4.4l4.2,15.5c0.3,1.3,0.7,2.5,1,3.7s0.6,2.4,0.9,3.7h0.2c0.3-1.2,0.6-2.5,0.8-3.7c0.3-1.2,0.5-2.5,0.8-3.7l3.9-15.5h4.3
		l-7.2,26.7h-5.5l-3.8-14.4c-0.3-1.3-0.6-2.5-0.9-3.8c-0.3-1.2-0.6-2.5-0.9-3.9h-0.2c-0.3,1.4-0.6,2.7-0.9,3.9
		c-0.3,1.3-0.6,2.5-1,3.8l-3.7,14.3H851L843.6,359.9z"/>
	<path d="M888.6,354.4c-0.9,0-1.6-0.3-2.2-0.8c-0.6-0.6-0.9-1.2-0.9-2.1s0.3-1.6,0.9-2.1c0.6-0.5,1.3-0.8,2.2-0.8s1.6,0.3,2.2,0.8
		c0.6,0.5,0.9,1.2,0.9,2.1c0,0.8-0.3,1.5-0.9,2.1C890.2,354.1,889.5,354.4,888.6,354.4z M886.3,359.9h4.5v26.7h-4.5V359.9z"/>
	<path d="M899.8,359.9h3.7l0.4,3.9h0.2c1.3-1.3,2.6-2.4,4-3.2c1.4-0.9,3.1-1.3,4.9-1.3c2.8,0,4.9,0.9,6.2,2.6s2,4.4,2,7.8v16.9h-4.5
		v-16.3c0-2.5-0.4-4.4-1.2-5.5s-2.1-1.7-3.8-1.7c-1.4,0-2.6,0.3-3.7,1c-1.1,0.7-2.3,1.7-3.6,3.1v19.4h-4.5v-26.7H899.8z"/>
	<path d="M927.9,391.7c0-1.1,0.3-2.2,1-3.2s1.7-2,2.9-2.8v-0.2c-0.7-0.4-1.2-1-1.7-1.7s-0.7-1.6-0.7-2.7s0.3-2.1,0.9-3
		c0.6-0.8,1.3-1.5,2-2v-0.2c-0.9-0.7-1.7-1.7-2.4-2.9c-0.7-1.2-1.1-2.6-1.1-4.3c0-1.5,0.3-2.8,0.8-4s1.3-2.2,2.2-3s2-1.5,3.2-1.9
		s2.5-0.7,3.9-0.7c0.7,0,1.4,0.1,2.1,0.2c0.6,0.1,1.2,0.3,1.7,0.5h9.3v3.5h-5.5c0.6,0.6,1.1,1.4,1.6,2.4c0.4,1,0.6,2,0.6,3.1
		c0,1.4-0.3,2.7-0.8,3.9s-1.2,2.1-2.1,2.9c-0.9,0.8-1.9,1.4-3.1,1.8c-1.2,0.4-2.5,0.7-3.8,0.7c-0.7,0-1.3-0.1-2-0.2
		c-0.7-0.2-1.4-0.4-2-0.7c-0.5,0.4-0.9,0.9-1.2,1.3s-0.5,1.1-0.5,1.8c0,0.8,0.3,1.5,1,2.1s1.9,0.8,3.7,0.8h5.2c3.1,0,5.5,0.5,7,1.5
		c1.6,1,2.3,2.6,2.3,4.9c0,1.2-0.3,2.4-0.9,3.5c-0.6,1.1-1.5,2.1-2.7,2.9s-2.6,1.5-4.3,2s-3.5,0.7-5.6,0.7c-1.7,0-3.2-0.2-4.5-0.5
		s-2.5-0.8-3.5-1.4s-1.7-1.4-2.3-2.3C928.1,393.9,927.9,392.9,927.9,391.7z M931.8,391.1c0,1.4,0.7,2.6,2.1,3.4
		c1.4,0.8,3.3,1.3,5.7,1.3c1.3,0,2.4-0.2,3.5-0.5c1-0.3,1.9-0.7,2.7-1.2s1.3-1.1,1.7-1.7c0.4-0.7,0.6-1.3,0.6-2
		c0-1.2-0.5-2.1-1.4-2.6s-2.3-0.7-4-0.7H938c-0.5,0-1.1,0-1.7-0.1c-0.6-0.1-1.2-0.2-1.8-0.4c-1,0.7-1.6,1.4-2.1,2.2
		C932,389.6,931.8,390.3,931.8,391.1z M938.9,375.1c0.8,0,1.5-0.1,2.2-0.4s1.3-0.7,1.8-1.3c0.5-0.5,0.9-1.2,1.2-2s0.4-1.7,0.4-2.7
		c0-2-0.6-3.5-1.7-4.6c-1.1-1.1-2.4-1.6-4-1.6s-2.9,0.5-4,1.6s-1.6,2.6-1.6,4.6c0,1,0.1,1.9,0.4,2.7c0.3,0.8,0.7,1.5,1.2,2
		s1.1,1,1.8,1.3C937.4,375,938.1,375.1,938.9,375.1z"/>
</g>
</svg>
